<svg xmlns="http://www.w3.org/2000/svg" viewBox="0 0 182 190">
  <!-- Light background (inner badge) -->
  <path fill="#EFF0F1" d="
    M55.688087,30.592331 
    C102.073578,4.999611 156.627899,29.396872 167.490097,80.245857 
    C176.127197,120.678596 148.080414,161.896042 107.224403,168.812012 
    C65.253349,175.916748 25.374292,147.514435 20.039001,106.162224 
    C15.860110,73.772903 28.115648,48.658661 55.688087,30.592331 
    M71.340904,127.370102 
    C71.677849,127.533241 72.014801,127.696373 72.990677,128.089706 
    C86.619987,136.873581 107.206520,135.525284 117.930054,125.146423 
    C124.791306,118.505707 127.408379,108.398735 124.765083,101.864120 
    C125.211685,100.439102 126.031647,99.017654 126.045296,97.588493 
    C126.146675,86.977623 126.102226,76.365166 126.056625,65.753403 
    C126.052185,64.721191 125.730042,63.690353 125.660271,63.278324 
    C119.279694,69.226341 112.832314,75.124557 106.579750,81.222534 
    C105.883209,81.901848 106.294762,83.717339 105.614212,85.309563 
    C105.338814,85.892227 105.063416,86.474892 104.344818,87.725792 
    C104.495255,91.803932 104.645691,95.882065 104.930328,100.720238 
    C104.845627,101.481102 104.760925,102.241959 104.064400,103.204010 
    C102.405563,105.850418 100.746727,108.496826 99.035767,111.061775 
    C99.035767,111.061775 99.127365,111.092781 98.200691,111.035095 
    C95.418129,111.063164 92.635559,111.091225 89.950500,111.101372 
    C89.950500,111.101372 89.889786,111.179749 89.816208,110.468887 
    C88.844971,110.000130 87.873734,109.531372 86.980927,109.020462 
    C86.980927,109.020462 86.937584,109.098244 86.955101,108.284782 
    C86.302040,101.749924 85.728447,95.205437 84.939148,88.687073 
    C84.745613,87.088715 83.847130,85.575722 82.663902,83.382874 
    C75.643456,83.586754 68.623009,83.790634 60.923149,84.318336 
    C60.655930,91.635048 60.075481,98.960358 60.275761,106.264252 
    C60.355797,109.183098 62.157696,112.054741 63.096996,114.931290 
    C63.096996,114.931290 63.129776,114.857742 63.085972,115.463982 
    C63.372753,115.969238 63.659534,116.474495 64.109650,117.338356 
    C64.109650,117.338356 64.126839,117.732025 64.266838,118.258362 
    C64.520363,118.511787 64.773888,118.765213 65.218719,119.177521 
    C65.218719,119.177521 65.173019,119.421967 65.284332,120.047409 
    C65.565498,120.350395 65.846672,120.653389 66.539497,121.219460 
    C66.739700,121.657677 66.939911,122.095886 67.287674,123.130310 
    C67.583733,123.399185 67.879784,123.668060 68.651543,124.214020 
    C69.115700,124.773727 69.579857,125.333435 70.263924,126.369652 
    C70.551468,126.558533 70.839012,126.747414 71.051422,126.949043 
    C71.051422,126.949043 71.054932,126.872917 71.340904,127.370102 
    M81.892410,65.148094 
    C80.316948,60.657928 77.552055,57.836021 72.414238,57.807278 
    C67.930847,57.782188 65.152420,60.168163 63.624924,63.946068 
    C62.016674,67.923698 62.497463,71.866379 65.733170,75.006813 
    C68.582901,77.772636 71.959259,78.722969 75.795624,77.160622 
    C80.867256,75.095222 82.648384,71.186508 81.892410,65.148094 z"/>

  <!-- Main cross (brand teal) -->
  <path fill="#12A0A5" d="
    M70.044014,125.893143 
    C69.579857,125.333435 69.115700,124.773727 68.336426,123.780777 
    C67.727577,123.076393 67.433853,122.805252 67.140121,122.534103 
    C66.939911,122.095886 66.739700,121.657677 66.269775,120.780121 
    C65.724373,120.034508 65.448692,119.728241 65.173019,119.421967 
    C65.173019,119.421967 65.218719,119.177521 65.087250,118.818329 
    C64.679474,118.216766 64.403160,117.974396 64.126839,117.732025 
    C64.126839,117.732025 64.109650,117.338356 64.068726,116.857269 
    C63.728455,115.870041 63.429115,115.363892 63.129776,114.857742 
    C63.129776,114.857742 63.096996,114.931290 63.151886,114.508545 
    C62.768478,109.996864 62.132484,105.917274 61.938896,101.816795 
    C61.658802,95.883972 61.699005,89.936020 61.602566,83.994522 
    C68.623009,83.790634 75.643456,83.586754 82.934441,84.167603 
    C83.216148,89.745689 82.772667,94.598801 83.392113,99.312210 
    C83.833603,102.671524 85.704552,105.842964 86.937584,109.098244 
    C86.937584,109.098244 86.980927,109.020462 87.079590,109.329742 
    C88.082100,110.152603 88.985939,110.666176 89.889786,111.179749 
    C89.889786,111.179749 89.950500,111.101372 90.149704,111.372963 
    C93.275063,111.460632 96.201210,111.276711 99.127365,111.092781 
    C99.127365,111.092781 99.035767,111.061775 99.398178,111.028397 
    C101.399139,108.330948 103.037682,105.666885 104.676224,103.002823 
    C104.760925,102.241959 104.845627,101.481102 104.961792,99.888924 
    C104.924843,95.057594 104.856430,91.057571 104.788017,87.057556 
    C105.063416,86.474892 105.338814,85.892227 106.156639,85.352966 
    C111.493347,90.302330 116.287628,95.208275 121.180954,100.414154 
    C121.859406,100.832550 122.438820,100.951012 123.014328,101.028732 
    C123.010429,100.987991 122.928772,100.993492 122.929993,101.309776 
    C123.288887,101.774887 123.646576,101.923714 123.996651,102.037003 
    C123.989044,102.001465 123.918564,102.019234 123.918564,102.019234 
    C127.408379,108.398735 124.791306,118.505707 117.930054,125.146423 
    C107.206520,135.525284 86.619987,136.873581 72.528458,127.727058 
    C71.729141,127.200577 71.392036,127.036751 71.054932,126.872917 
    C71.054932,126.872917 71.051422,126.949043 70.991547,126.693474 
    C70.635788,126.256317 70.339897,126.074730 70.044014,125.893143 z"/>

  <!-- Cross highlight -->
  <path fill="#3DC7C2" d="
    M121.081909,100.114227 
    C116.287628,95.208275 111.493347,90.302330 106.445740,85.201149 
    C106.294762,83.717339 105.883209,81.901848 106.579750,81.222534 
    C112.832314,75.124557 119.279694,69.226341 125.660271,63.278324 
    C125.730042,63.690353 126.052185,64.721191 126.056625,65.753403 
    C126.102226,76.365166 126.146675,86.977623 126.045296,97.588493 
    C126.031647,99.017654 125.211685,100.439102 124.341827,101.941681 
    C123.918564,102.019234 123.989044,102.001465 123.957161,101.747101 
    C123.593109,101.326317 123.260941,101.159904 122.928772,100.993492 
    C122.928772,100.993492 123.010429,100.987991 122.918266,100.739731 
    C122.244705,100.365715 121.663307,100.239975 121.081909,100.114227 z"/>

  <!-- Cross inner highlight -->
  <path fill="#67CFCA" d="
    M81.965759,65.549805 
    C82.648384,71.186508 80.867256,75.095222 75.795624,77.160622 
    C71.959259,78.722969 68.582901,77.772636 65.733170,75.006813 
    C62.497463,71.866379 62.016674,67.923698 63.624924,63.946068 
    C65.152420,60.168163 67.930847,57.782188 72.414238,57.807278 
    C77.552055,57.836021 80.316948,60.657928 81.965759,65.549805 z"/>

  <!-- Subtle shadow/highlight details -->
  <path fill="#CFF1F6" d="M61.262856,84.156433 C61.699005,89.936020 61.658802,95.883972 61.938896,101.816795 C62.132484,105.917274 62.768478,109.996864 63.191292,114.516830 C62.157696,112.054741 60.355797,109.183098 60.275761,106.264252 C60.075481,98.960358 60.655930,91.635048 61.262856,84.156433 z"/>
  <path fill="#E3F8FA" d="M86.946342,108.691513 C85.704552,105.842964 83.833603,102.671524 83.392113,99.312210 C82.772667,94.598801 83.216148,89.745689 83.238861,84.487907 C83.847130,85.575722 84.745613,87.088715 84.939148,88.687073 C85.728447,95.205437 86.302040,101.749924 86.946342,108.691513 z"/>
  <path fill="#E3F8FA" d="M104.370316,103.103416 C103.037682,105.666885 101.399139,108.330948 99.424240,111.069122 C100.746727,108.496826 102.405563,105.850418 104.370316,103.103416 z"/>
  <path fill="#E3F8FA" d="M104.566422,87.391678 C104.856430,91.057571 104.924843,95.057594 104.894691,99.508911 C104.645691,95.882065 104.495255,91.803932 104.566422,87.391678 z"/>
  <path fill="#E3F8FA" d="M98.664032,111.063934 C96.201210,111.276711 93.275063,111.460632 90.100952,111.381927 C92.635559,111.091225 95.418129,111.063164 98.664032,111.063934 z"/>
  <path fill="#E3F8FA" d="M89.852997,110.824318 C88.985939,110.666176 88.082100,110.152603 87.040375,109.350830 C87.873734,109.531372 88.844971,110.000130 89.852997,110.824318 z"/>
  <path fill="#CFF1F6" d="M63.107872,115.160858 C63.429115,115.363892 63.728455,115.870041 63.987053,116.677971 C63.659534,116.474495 63.372753,115.969238 63.107872,115.160858 z"/>
  <path fill="#CFF1F6" d="M64.196838,117.995193 C64.403160,117.974396 64.679474,118.216766 64.991600,118.738892 C64.773888,118.765213 64.520363,118.511787 64.196838,117.995193 z"/>
  <path fill="#CFF1F6" d="M65.228676,119.734688 C65.448692,119.728241 65.724373,120.034508 66.063942,120.648575 C65.846672,120.653389 65.565498,120.350395 65.228676,119.734688 z"/>
  <path fill="#CFF1F6" d="M67.213898,122.832207 C67.433853,122.805252 67.727577,123.076393 68.098572,123.642242 C67.879784,123.668060 67.583733,123.399185 67.213898,122.832207 z"/>
  <path fill="#CFF1F6" d="M70.153969,126.131393 C70.339897,126.074730 70.635788,126.256317 71.029114,126.687103 C70.839012,126.747414 70.551468,126.558533 70.153969,126.131393 z"/>
  <path fill="#CFF1F6" d="M71.197922,127.121506 C71.392036,127.036751 71.729141,127.200577 72.209000,127.611961 C72.014801,127.696373 71.677849,127.533241 71.197922,127.121506 z"/>
  <path fill="#EFF0F1" d="M121.180954,100.414154 C121.663307,100.239975 122.244705,100.365715 122.922165,100.780472 C122.438820,100.951012 121.859406,100.832550 121.180954,100.414154 z"/>
  <path fill="#EFF0F1" d="M122.929993,101.309776 C123.260941,101.159904 123.593109,101.326317 123.964767,101.782639 C123.646576,101.923714 123.288887,101.774887 122.929993,101.309776 z"/>
</svg>
