<svg xmlns="http://www.w3.org/2000/svg" viewBox="0 0 182 190">
  <!-- Main cross (white for dark backgrounds) -->
  <path fill="white" d="
    M70.044014,125.893143 
    C69.579857,125.333435 69.115700,124.773727 68.336426,123.780777 
    C67.727577,123.076393 67.433853,122.805252 67.140121,122.534103 
    C66.939911,122.095886 66.739700,121.657677 66.269775,120.780121 
    C65.724373,120.034508 65.448692,119.728241 65.173019,119.421967 
    C65.173019,119.421967 65.218719,119.177521 65.087250,118.818329 
    C64.679474,118.216766 64.403160,117.974396 64.126839,117.732025 
    C64.126839,117.732025 64.109650,117.338356 64.068726,116.857269 
    C63.728455,115.870041 63.429115,115.363892 63.129776,114.857742 
    C63.129776,114.857742 63.096996,114.931290 63.151886,114.508545 
    C62.768478,109.996864 62.132484,105.917274 61.938896,101.816795 
    C61.658802,95.883972 61.699005,89.936020 61.602566,83.994522 
    C68.623009,83.790634 75.643456,83.586754 82.934441,84.167603 
    C83.216148,89.745689 82.772667,94.598801 83.392113,99.312210 
    C83.833603,102.671524 85.704552,105.842964 86.937584,109.098244 
    C86.937584,109.098244 86.980927,109.020462 87.079590,109.329742 
    C88.082100,110.152603 88.985939,110.666176 89.889786,111.179749 
    C89.889786,111.179749 89.950500,111.101372 90.149704,111.372963 
    C93.275063,111.460632 96.201210,111.276711 99.127365,111.092781 
    C99.127365,111.092781 99.035767,111.061775 99.398178,111.028397 
    C101.399139,108.330948 103.037682,105.666885 104.676224,103.002823 
    C104.760925,102.241959 104.845627,101.481102 104.961792,99.888924 
    C104.924843,95.057594 104.856430,91.057571 104.788017,87.057556 
    C105.063416,86.474892 105.338814,85.892227 106.156639,85.352966 
    C111.493347,90.302330 116.287628,95.208275 121.180954,100.414154 
    C121.859406,100.832550 122.438820,100.951012 123.014328,101.028732 
    C123.010429,100.987991 122.928772,100.993492 122.929993,101.309776 
    C123.288887,101.774887 123.646576,101.923714 123.996651,102.037003 
    C123.989044,102.001465 123.918564,102.019234 123.918564,102.019234 
    C127.408379,108.398735 124.791306,118.505707 117.930054,125.146423 
    C107.206520,135.525284 86.619987,136.873581 72.528458,127.727058 
    C71.729141,127.200577 71.392036,127.036751 71.054932,126.872917 
    C71.054932,126.872917 71.051422,126.949043 70.991547,126.693474 
    C70.635788,126.256317 70.339897,126.074730 70.044014,125.893143 z"/>

  <!-- Cross highlight (white with opacity) -->
  <path fill="white" fill-opacity="0.6" d="
    M121.081909,100.114227 
    C116.287628,95.208275 111.493347,90.302330 106.445740,85.201149 
    C106.294762,83.717339 105.883209,81.901848 106.579750,81.222534 
    C112.832314,75.124557 119.279694,69.226341 125.660271,63.278324 
    C125.730042,63.690353 126.052185,64.721191 126.056625,65.753403 
    C126.102226,76.365166 126.146675,86.977623 126.045296,97.588493 
    C126.031647,99.017654 125.211685,100.439102 124.341827,101.941681 
    C123.918564,102.019234 123.989044,102.001465 123.957161,101.747101 
    C123.593109,101.326317 123.260941,101.159904 122.928772,100.993492 
    C122.928772,100.993492 123.010429,100.987991 122.918266,100.739731 
    C122.244705,100.365715 121.663307,100.239975 121.081909,100.114227 z"/>

  <!-- Cross inner highlight (white with opacity) -->
  <path fill="white" fill-opacity="0.4" d="
    M81.965759,65.549805 
    C82.648384,71.186508 80.867256,75.095222 75.795624,77.160622 
    C71.959259,78.722969 68.582901,77.772636 65.733170,75.006813 
    C62.497463,71.866379 62.016674,67.923698 63.624924,63.946068 
    C65.152420,60.168163 67.930847,57.782188 72.414238,57.807278 
    C77.552055,57.836021 80.316948,60.657928 81.965759,65.549805 z"/>
</svg>
